<svg width="420" height="285" viewBox="0 0 420 285" fill="none" xmlns="http://www.w3.org/2000/svg">
<path fill-rule="evenodd" clip-rule="evenodd" d="M150.264 101.67C150.264 85.2953 163.616 72.021 180.131 72.021H239.823C256.318 72.021 269.69 85.2917 269.69 101.67C269.69 118.045 256.338 131.319 239.823 131.319H180.131C163.636 131.319 150.264 118.048 150.264 101.67ZM180.121 113.529C173.525 113.529 168.178 108.22 168.178 101.67C168.178 95.12 173.525 89.8103 180.121 89.8103C186.716 89.8103 192.063 95.12 192.063 101.67C192.063 108.22 186.716 113.529 180.121 113.529ZM239.833 113.529C233.238 113.529 227.891 108.22 227.891 101.67C227.891 95.12 233.238 89.8103 239.833 89.8103C246.429 89.8103 251.776 95.12 251.776 101.67C251.776 108.22 246.429 113.529 239.833 113.529Z" fill="white"/>
<path fill-rule="evenodd" clip-rule="evenodd" d="M239.833 105.623C242.032 105.623 243.814 103.853 243.814 101.67C243.814 99.4866 242.032 97.7167 239.833 97.7167C237.635 97.7167 235.853 99.4866 235.853 101.67C235.853 103.853 237.635 105.623 239.833 105.623ZM180.121 105.623C182.319 105.623 184.101 103.853 184.101 101.67C184.101 99.4866 182.319 97.7167 180.121 97.7167C177.922 97.7167 176.14 99.4866 176.14 101.67C176.14 103.853 177.922 105.623 180.121 105.623Z" fill="white"/>
<path fill-rule="evenodd" clip-rule="evenodd" d="M271.954 43.0437C289.594 60.1916 289.594 81.9039 289.594 81.9039V121.436C289.594 121.436 289.594 160.968 209.977 160.968C130.36 160.968 130.36 121.436 130.36 121.436V81.9039C130.36 81.9039 130.36 60.1701 148.026 43.0182L126.915 6.79745C125.813 4.90798 126.463 2.48947 128.365 1.39557C130.267 0.301661 132.702 0.946595 133.803 2.83607L154.186 37.8051C165.98 29.1077 183.614 22.6061 209.977 22.6061C236.361 22.6061 254.001 29.1179 265.796 37.8256L286.195 2.83607C287.297 0.946595 289.732 0.301661 291.635 1.39557C293.537 2.48947 294.187 4.90798 293.085 6.79745L271.954 43.0437ZM138.322 81.9039V121.436C138.322 121.381 138.335 121.588 138.397 122.016C138.526 122.91 138.768 123.954 139.157 125.112C140.332 128.612 142.488 132.182 145.942 135.611C156.724 146.318 177.095 153.061 209.977 153.061C242.859 153.061 263.23 146.318 274.012 135.611C277.466 132.182 279.622 128.612 280.797 125.112C281.186 123.954 281.428 122.91 281.557 122.016C281.619 121.588 281.632 121.381 281.632 121.436V81.9039C281.632 81.6834 281.605 81.064 281.513 80.1056C281.349 78.3933 281.048 76.4561 280.578 74.3538C279.225 68.3063 276.788 62.2577 273.017 56.6407C262.102 40.3816 242.226 30.5125 209.977 30.5125C177.728 30.5125 157.852 40.3816 146.937 56.6407C143.166 62.2577 140.729 68.3063 139.376 74.3538C138.906 76.4561 138.605 78.3933 138.441 80.1056C138.349 81.064 138.322 81.9039 138.322 81.9039Z" fill="white"/>
<path d="M66.1989 219.568V241.438H53.964V219.568C53.964 214.951 51.7617 211.792 46.8677 211.792C42.0553 211.792 39.6899 215.032 39.6899 219.568V241.438H27.455V219.568C27.455 214.951 25.0895 211.792 20.1956 211.792C15.3832 211.792 13.1809 215.032 13.1809 219.568V241.438H0.945953V219.568C0.945953 207.823 9.021 200.533 20.3587 200.533C26.1499 200.533 30.636 203.206 33.5724 208.147C36.5088 203.206 40.9949 200.533 46.7861 200.533C58.5317 200.533 66.1989 208.228 66.1989 219.568ZM102.333 221.188C102.006 215.275 99.3147 211.792 93.1157 211.792C91.4028 211.792 89.9346 212.035 88.7111 212.521C84.9591 214.222 83.5725 217.381 83.5725 221.269C83.5725 222.565 83.7356 223.78 84.1434 224.833C85.3669 229.045 89.0374 230.584 93.1157 230.584C99.3147 230.584 102.333 227.263 102.333 221.188ZM117.83 241.438H105.595C104.78 239.413 104.046 237.388 103.556 235.282C100.783 239.818 96.5415 241.843 91.3213 241.843C79.6573 241.843 71.3376 232.123 71.3376 221.026C71.3376 208.228 80.9624 200.533 93.1157 200.533C106.085 200.533 114.241 208.795 114.568 221.188C114.649 222.241 114.649 223.456 114.649 224.914C114.649 230.584 115.546 236.254 117.83 241.438ZM134.959 221.188V241.438H122.724V221.269C122.724 207.823 132.675 200.533 145.236 200.533C145.644 200.533 146.215 200.533 146.786 200.614C147.357 200.695 148.01 200.857 148.581 200.938V212.683C148.173 212.602 147.683 212.521 147.113 212.44C146.542 212.359 146.052 212.278 145.644 212.278C143.605 212.278 141.974 212.521 140.587 212.926C138.303 213.736 136.264 215.275 135.53 217.705C135.122 218.758 134.959 219.973 134.959 221.188ZM177.537 200.938H189.772V204.988C189.772 211.144 187.651 217.057 183.083 221.269L193.85 241.438H178.76L166.117 217.462V241.438H153.883V184.738H166.117V215.275H167.993C174.6 215.275 177.537 210.901 177.537 204.907V200.938ZM207.39 216.328C208.613 216.733 210 217.057 211.468 217.219C212.936 217.462 214.323 217.543 215.628 217.543C217.259 217.543 221.419 217.219 221.419 214.87C221.419 212.359 217.83 212.278 216.036 212.278C212.447 212.278 209.347 213.088 207.39 216.328ZM230.473 228.802V240.142C225.905 241.195 221.338 241.924 216.607 241.924C203.638 241.924 194.013 234.391 194.013 221.35C194.013 208.471 203.312 200.533 215.628 200.533C224.029 200.533 233.736 204.502 233.736 213.979C233.736 223.375 223.458 226.858 215.547 226.858C212.529 226.858 209.511 226.048 206.737 224.914C208.369 229.45 213.263 230.179 217.504 230.179C219.706 230.179 221.909 230.098 224.111 229.774C226.15 229.612 228.516 229.369 230.473 228.802ZM262.366 202.315V213.574H250.946V221.188C250.946 227.425 255.106 230.584 261.142 230.584C261.876 230.584 262.529 230.503 263.1 230.422C263.671 230.341 264.16 230.26 264.731 230.179V241.438C263.997 241.519 263.426 241.681 263.018 241.762C262.529 241.843 261.713 241.843 260.653 241.843C248.336 241.843 238.711 233.5 238.711 221.188V191.218H250.946V202.315H262.366ZM283.246 221.188C283.246 227.182 286.264 230.584 292.382 230.584C294.095 230.584 295.645 230.341 296.868 229.774C299.152 228.883 300.702 227.182 301.517 224.833C301.844 223.699 302.007 222.484 302.007 221.188C302.007 219.892 301.844 218.677 301.517 217.543C300.62 215.032 299.233 213.655 296.868 212.521C295.645 212.035 294.095 211.792 292.382 211.792C286.264 211.792 283.246 215.194 283.246 221.188ZM271.012 184.738H283.246V204.988C286.02 201.829 289.772 200.533 293.932 200.533C305.84 200.533 314.242 210.01 314.242 221.35C314.242 234.148 304.698 241.843 292.545 241.843C279.902 241.843 271.012 233.581 271.012 221.188V184.738ZM319.543 184.738H331.778V241.438H319.543V184.738ZM359.592 230.584C365.547 230.584 368.972 227.101 368.972 221.188C368.972 215.275 365.547 211.792 359.592 211.792C353.638 211.792 350.212 215.275 350.212 221.188C350.212 227.101 353.638 230.584 359.592 230.584ZM359.592 241.843C347.031 241.843 337.977 233.581 337.977 221.188C337.977 208.39 347.357 200.533 359.592 200.533C372.235 200.533 381.207 208.795 381.207 221.188C381.207 233.905 371.746 241.843 359.592 241.843ZM419.054 228.073V240.223C414.894 241.6 410.571 242.005 406.248 242.005C393.605 242.005 384.633 233.662 384.633 221.269C384.633 208.39 393.932 200.533 406.248 200.533C410.571 200.533 414.894 200.938 419.054 202.315V214.465C415.465 212.602 410.979 212.116 406.982 212.116C404.291 212.116 401.028 212.683 399.152 214.789C397.439 216.49 396.868 218.92 396.868 221.188C396.868 222.484 397.031 223.699 397.439 224.752C397.765 225.886 398.336 226.858 399.152 227.668C400.946 229.855 404.291 230.422 406.982 230.422C410.571 230.422 415.873 229.774 419.054 228.073Z" fill="#C8F64A"/>
<path d="M43.6377 253.565H49.9321C50.0181 253.565 50.6912 255.201 51.9516 258.472C52.0661 258.586 53.3838 261.807 55.9045 268.136H57.5157V253.565H63.0369V270.91H63.6599V277.672H61.4257V278.974H63.6599V283.006H55.3889V277.886H53.928C51.9516 273.093 50.6197 269.786 49.9322 267.965V262.803H49.1588V278.504H47.9128V283.923H42.7568V272.254H43.702V272.211C43.6591 262.141 43.6377 255.926 43.6377 253.565ZM63.2946 263.058H63.8746C64.1467 263.058 64.2828 263.201 64.2828 263.485C64.2828 263.585 64.2327 263.634 64.1324 263.634C64.2327 263.762 64.2828 263.919 64.2828 264.104V264.21H64.025C63.9963 263.926 63.9462 263.784 63.8746 263.784H63.6168V264.21H63.2946V263.058ZM63.6169 263.314V263.592H63.8747C63.9463 263.592 63.9821 263.556 63.9821 263.485V263.314L63.6169 263.314ZM63.2946 264.616H64.1754V264.872H63.8746V265.747H63.5524V264.872H63.2946C63.223 264.872 63.1872 264.836 63.1872 264.765V264.723C63.2015 264.651 63.2373 264.616 63.2946 264.616ZM63.1872 266.173H63.4021C63.488 266.173 63.5739 266.393 63.6599 266.834H63.7673L63.9177 266.173H64.2399L63.8747 267.304H63.6169C63.5309 267.304 63.3877 266.927 63.1872 266.173ZM63.2517 267.709L63.5524 267.709C63.5668 267.837 63.6384 267.944 63.7673 268.029C63.8818 267.816 63.9678 267.709 64.0251 267.709H64.2399V267.773C64.0251 268.086 63.9177 268.271 63.9177 268.328C63.975 268.342 64.0967 268.513 64.2829 268.84H63.9177C63.9177 268.74 63.8532 268.641 63.7243 268.541C63.5954 268.74 63.5023 268.84 63.4451 268.84H63.1873C63.4307 268.484 63.5525 268.299 63.5525 268.285C63.352 267.958 63.2517 267.766 63.2517 267.709ZM52.8969 268.136V269.267H56.3342C56.0621 268.513 55.8902 268.136 55.8186 268.136H52.8969ZM57.5802 268.136V269.267H56.3772C57.1076 271.087 57.5444 272.275 57.6876 272.829H57.7306V272.68C57.6303 270.817 57.5802 269.679 57.5802 269.267L60.0722 269.267V268.136L57.5802 268.136ZM63.2946 269.267H63.8102C64.1682 269.309 64.3473 269.48 64.3473 269.779V269.821C64.3473 270.205 64.1897 270.397 63.8747 270.397H63.2946L63.2946 269.267ZM63.6169 269.522V270.184C63.889 270.184 64.0251 270.084 64.0251 269.885V269.821C64.0251 269.65 63.9749 269.551 63.8747 269.522L63.6169 269.522ZM54.2503 278.205L55.0237 278.205V278.461H54.4651V278.653H54.9162C54.9878 278.668 55.0237 278.703 55.0237 278.76V278.824C55.0237 278.895 54.9878 278.931 54.9162 278.931H54.4651V279.123H54.9807C55.0523 279.137 55.0881 279.173 55.0881 279.229V279.272C55.0881 279.343 55.0523 279.379 54.9807 279.379H54.2503C54.1787 279.379 54.1429 279.343 54.1429 279.272V278.291C54.1572 278.234 54.193 278.205 54.2503 278.205ZM47.9987 278.76H48.321C48.4642 279.187 48.5358 279.429 48.5358 279.485H48.5788C48.6647 279.002 48.7506 278.76 48.8366 278.76H49.0514V278.824C48.8366 279.549 48.7005 279.912 48.6432 279.912H48.3639C48.3639 279.813 48.2422 279.429 47.9987 278.76ZM54.6584 279.741L54.7658 279.741C54.8374 279.756 54.8732 279.791 54.8732 279.848V280.531C54.8732 280.716 54.7872 280.851 54.6154 280.936H54.465C54.2215 280.936 54.0998 280.815 54.0998 280.573V280.467H54.3576C54.3576 280.609 54.3934 280.68 54.465 280.68H54.5509V279.848C54.5653 279.777 54.6011 279.741 54.6584 279.741ZM54.2503 281.299H54.3577C54.4293 281.299 54.4651 281.434 54.4651 281.704L54.9163 281.299H55.1955V281.341L54.7659 281.811C54.8088 281.811 54.9664 282.017 55.2385 282.429L55.1311 282.493H54.9807C54.9377 282.493 54.7945 282.337 54.551 282.024C54.4937 282.024 54.4436 282.181 54.4007 282.493H54.2503C54.1787 282.493 54.1429 282.458 54.1429 282.387V281.405C54.1572 281.334 54.193 281.299 54.2503 281.299ZM55.3889 283.56H65.3785V284.136H55.3889V283.56ZM95.2528 253.565C99.6639 253.565 102.564 255.101 103.953 258.173C104.741 259.667 105.135 262.547 105.135 266.814V266.963H102.858V267.987H105.135V279.016H103.631V283.006H100.645V284.137H90.2044V283.006H88.9154V279.016H86.23V275.902H87.8412V274.28H86.23V275.902H82.4276V274.28H85.3063C85.2777 271.777 85.2633 269.864 85.2633 268.541V265.939C85.2633 261.103 86.0868 257.868 87.7338 256.232C89.2519 254.454 91.7581 253.565 95.2528 253.565ZM91.4932 264.104L91.5362 264.104L91.4932 264.189V266.962H89.1731V267.986H91.4932C91.4503 272.381 91.4288 275.702 91.4288 277.949V279.016H96.5848V277.331H98.9479V277.288C98.9479 275.211 98.9336 272.317 98.905 268.605C98.905 268.449 98.9193 268.05 98.9479 267.41C98.9479 263.385 98.7116 260.918 98.239 260.008C97.752 259.126 96.8569 258.685 95.5536 258.685H94.7802C93.2334 258.685 92.2737 259.36 91.9015 260.712C91.7296 261.394 91.5935 262.525 91.4932 264.104ZM105.135 266.963L108.83 266.963V267.987L105.135 267.987V266.963ZM105.393 268.178H105.5C105.586 268.178 105.651 268.385 105.694 268.797C105.751 268.797 105.837 268.591 105.951 268.178H106.102C106.188 268.178 106.259 268.399 106.317 268.84H106.36L106.51 268.178H106.768V268.242C106.61 268.982 106.496 269.352 106.424 269.352H106.209C106.209 269.295 106.159 269.074 106.059 268.69H106.016C105.959 269.131 105.887 269.352 105.801 269.352H105.586C105.486 268.911 105.386 268.541 105.285 268.242L105.393 268.178ZM105.5 269.714H105.693C105.779 269.714 105.886 269.956 106.015 270.44H106.058C106.058 270.369 106.122 270.127 106.251 269.714H106.617V270.888H106.359V270.29H106.316C106.216 270.689 106.13 270.888 106.058 270.888H105.908C105.807 270.575 105.757 270.39 105.757 270.333H105.693C105.693 270.703 105.657 270.888 105.585 270.888H105.392V269.821C105.406 269.75 105.442 269.714 105.5 269.714ZM105.328 271.251L105.543 271.251C105.715 271.35 105.801 271.471 105.801 271.613C105.815 271.613 105.916 271.492 106.102 271.251H106.317V271.357L106.016 271.805C106.016 271.834 106.13 272.026 106.36 272.381V272.424H106.102L105.801 272.061C105.686 272.303 105.6 272.424 105.543 272.424H105.285C105.529 272.068 105.651 271.862 105.651 271.805C105.436 271.492 105.328 271.308 105.328 271.251ZM105.5 272.787H105.8C106.144 272.787 106.316 272.908 106.316 273.149V273.192L106.208 273.341C106.266 273.341 106.316 273.398 106.359 273.512V273.704C106.287 273.875 106.115 273.96 105.843 273.96H105.392V272.893C105.406 272.822 105.442 272.787 105.5 272.787ZM105.693 273.043V273.256H106.015V273.043H105.693ZM97.7232 273.043H98.024V273.448H98.3892V273.149C98.4035 273.078 98.4393 273.043 98.4966 273.043H98.69V274.173H98.3892V273.704H98.024V274.173H97.7232L97.7232 273.043ZM105.693 273.448V273.704H106.058V273.555C106.058 273.483 106.023 273.448 105.951 273.448L105.693 273.448ZM105.5 274.323L106.165 274.323C106.223 274.337 106.251 274.372 106.251 274.429V274.579H105.693V274.771H106.208V275.027H105.693V275.24H106.251V275.496H105.392V274.429C105.406 274.358 105.442 274.323 105.5 274.323ZM97.7232 274.579H98.5826V274.685C98.5826 274.813 98.4107 275.069 98.067 275.453C98.4537 275.453 98.647 275.482 98.647 275.539V275.709H97.6588V275.496C97.9166 275.197 98.0884 274.977 98.1744 274.835H97.7232V274.579ZM92.3096 276.051C92.6104 276.051 92.7822 276.278 92.8252 276.733C92.8252 277.06 92.6175 277.245 92.2022 277.288C91.8585 277.203 91.6866 277.018 91.6866 276.733C91.6866 276.278 91.8943 276.051 92.3096 276.051ZM98.0242 276.115H98.325C98.325 276.2 98.4682 276.57 98.7546 277.224H98.4968C98.4252 277.224 98.3894 277.16 98.3894 277.032H98.0242C97.9526 277.032 97.9168 277.096 97.9168 277.224H97.616V277.181C97.6876 277.053 97.8237 276.698 98.0242 276.115ZM92.0089 276.52V276.733C92.0089 276.932 92.1091 277.032 92.3096 277.032C92.4529 277.004 92.5245 276.904 92.5245 276.733V276.52C92.5245 276.463 92.4529 276.392 92.3096 276.307H92.2022C92.1593 276.307 92.0948 276.378 92.0089 276.52ZM98.1315 276.52L98.0671 276.776H98.2819C98.2389 276.605 98.1888 276.52 98.1315 276.52ZM92.2022 277.587C92.4314 277.587 92.6033 277.693 92.7178 277.907V278.056H92.46C92.46 277.914 92.3598 277.843 92.1593 277.843L92.0089 278.056V278.248C92.0089 278.461 92.1092 278.568 92.3097 278.568C92.3383 278.568 92.4242 278.483 92.5675 278.312H92.7823C92.7823 278.597 92.5889 278.767 92.2023 278.824C91.8585 278.725 91.6867 278.533 91.6867 278.248C91.7296 277.807 91.9015 277.587 92.2022 277.587ZM154.4 253.565H160.501V265.747H166.666V253.565H171.844V270.931H169.717V271.699H171.844V284.136H166.774C166.702 284.136 166.666 284.101 166.666 284.03V270.824H160.501V284.03C160.501 284.101 160.465 284.136 160.393 284.136H155.281V268.2H154.4L154.4 253.565ZM171.844 270.931L174.572 270.931V271.699L171.844 271.699V270.931ZM192.352 253.543H198.281V269.714H195.488V270.589H198.281V273.597C198.281 276.356 198.775 277.971 199.763 278.44C200.265 278.738 200.888 278.888 201.632 278.888H203.458V273.554H205.091V253.543H210.978V272.338H208.851V273.704H210.978C210.949 274.159 210.935 274.493 210.935 274.706V280.701H207.841V284.136H194.07V279.912H192.803V267.261H192.352L192.352 253.543ZM198.281 269.714L201.632 269.714V270.589L198.281 270.589V269.714ZM208.142 280.957H208.335C208.421 280.957 208.507 281.192 208.593 281.661H208.636C208.779 281.249 208.851 281.014 208.851 280.957H209.151C208.937 281.74 208.786 282.131 208.7 282.131H208.55C208.478 282.131 208.342 281.74 208.142 280.957ZM230.003 253.543L236.877 253.543C237.636 256.288 239.198 261.785 241.561 270.034H244.268C244.339 270.034 244.633 269.046 245.148 267.069C246.294 263.186 247.576 258.678 248.994 253.543H255.353V273.384H255.718V277.01H253.784V277.672H255.718V284.136H250.304V281.768H250.97V274.429H249.832V270.76H249.144L249.101 270.952H248.521V276.178H246.652V278.61H245.041V282.749H241.238V280.104H238.897V276.477H237.5V272.722H236.705C236.677 272.509 236.505 271.855 236.19 270.759H241.647L241.496 270.034H236.039L236.19 270.759H235.459V275.496H235.825V280.722H234.471V281.661H235.825V283.048H230.926V276.754H230.003L230.003 253.543ZM235.417 267.858V268.221C235.417 268.534 235.431 269.138 235.46 270.034H235.975C235.631 268.655 235.46 267.93 235.46 267.858L235.417 267.858ZM249.832 267.901L249.359 270.035H249.832C249.86 269.153 249.875 268.513 249.875 268.115V267.901L249.832 267.901ZM233.698 270.034V270.76H235.417V270.034H233.698ZM244.354 270.034L244.203 270.76H249.101C249.245 270.376 249.316 270.134 249.316 270.034H244.354ZM249.875 270.034V270.76H253.634V270.034H249.875ZM241.754 270.76C241.997 271.855 242.155 272.403 242.227 272.403H242.85V275.133H243.838V270.909H244.096V270.76L241.754 270.76ZM255.718 277.01L258.832 277.011V277.672L255.718 277.672V277.01ZM256.019 277.928L256.277 277.928V278.397H256.706V278.035C256.706 277.964 256.742 277.928 256.814 277.928H256.9C256.971 277.942 257.007 277.978 257.007 278.035V279.016C257.007 279.087 256.971 279.123 256.9 279.123H256.706V278.653H256.277V279.123H256.019V277.928ZM256.019 279.485L256.749 279.485C256.821 279.5 256.857 279.535 256.857 279.592V279.741H256.277V279.955H256.749V280.211H256.277V280.68H256.019V279.485ZM256.083 281.043H256.813C256.87 281.043 256.899 281.071 256.899 281.128V281.235L256.34 281.96H256.899V282.216H256.018C255.946 282.216 255.911 282.166 255.911 282.067C256.025 281.896 256.219 281.64 256.491 281.299H255.975V281.128C255.989 281.071 256.025 281.043 256.083 281.043ZM256.019 282.579L256.277 282.579V283.261L256.341 283.517H256.599C256.67 283.517 256.706 283.482 256.706 283.411V282.685C256.706 282.614 256.742 282.579 256.814 282.579H256.9C256.971 282.593 257.007 282.628 257.007 282.685V283.304C257.007 283.617 256.849 283.773 256.534 283.773H256.448C256.248 283.773 256.105 283.688 256.019 283.517L256.019 282.579ZM229.53 283.304H235.051V283.773H229.53V283.304ZM285.85 253.587H291.028C291.099 253.886 292.782 259.447 296.076 270.27H297V280.318H294.873V281.107H297V283.262H291.285V277.075H284.282V279.7H281.446V284.137H276.247V283.838H276.655V279.7H278.782V271.145H280.544L285.85 253.587ZM288.278 262.183V262.247C287.834 264.665 286.974 268.491 285.7 273.725H290.512V270.269H290.104C288.958 265.32 288.385 262.624 288.385 262.183L288.278 262.183ZM279.105 269.608H279.577C279.577 269.736 279.642 269.843 279.771 269.928C279.785 269.8 279.856 269.693 279.985 269.608H280.351V269.65C280.107 269.992 279.985 270.184 279.985 270.227C280.043 270.355 280.179 270.561 280.394 270.845V270.952H280.2C280 270.952 279.856 270.81 279.771 270.525C279.556 270.81 279.434 270.952 279.405 270.952H279.147C279.076 270.952 279.04 270.916 279.04 270.845C279.083 270.845 279.226 270.653 279.47 270.269V270.184C279.226 269.828 279.105 269.636 279.105 269.608ZM274.743 270.227H278.782L278.782 271.145L274.743 271.144V270.227ZM297.15 270.888L298.246 270.888V271.144L297.58 271.976H298.203C298.26 271.99 298.289 272.026 298.289 272.082V272.189C298.289 272.26 298.26 272.296 298.203 272.296H297.107V272.04L297.773 271.208H297.15V270.888ZM289.223 272.232L289.524 272.232V272.744L290.104 272.232H290.405V272.296L289.953 272.808C290.297 273.292 290.469 273.562 290.469 273.619H290.147C290.118 273.619 289.961 273.434 289.674 273.064C289.631 273.064 289.581 273.114 289.524 273.213V273.619H289.223L289.223 272.232ZM297.258 272.701H297.881C298.196 272.744 298.353 272.9 298.353 273.171L298.203 273.427C298.303 273.54 298.353 273.747 298.353 274.045V274.088H298.031C298.002 273.747 297.952 273.576 297.881 273.576H297.515V274.088H297.258C297.186 274.088 297.15 274.052 297.15 273.981V272.808C297.164 272.737 297.2 272.701 297.258 272.701ZM297.515 273V273.32H297.881C297.952 273.32 297.988 273.284 297.988 273.213V273L297.515 273ZM297.15 274.493L298.138 274.493C298.21 274.507 298.246 274.543 298.246 274.6V274.707C298.246 274.778 298.21 274.813 298.138 274.813H297.838V275.901H297.472V274.813H297.15C297.079 274.813 297.043 274.778 297.043 274.707V274.6C297.057 274.529 297.093 274.493 297.15 274.493ZM297.043 276.307H297.301C297.401 276.307 297.508 276.598 297.623 277.181H297.666C297.838 276.669 297.924 276.378 297.924 276.307H298.289C298.017 277.231 297.845 277.693 297.773 277.693H297.473L297.043 276.307ZM285.85 277.48V277.757C285.85 277.814 285.571 277.928 285.012 278.099V278.163L285.85 278.461V278.781L284.54 278.312V277.949L285.85 277.48ZM277.794 278.099H277.966C278.08 278.099 278.267 278.568 278.524 279.507H278.224C278.224 279.478 278.188 279.372 278.116 279.187H277.644C277.615 279.4 277.565 279.507 277.493 279.507H277.235C277.536 278.568 277.722 278.099 277.794 278.099ZM297.73 278.099H297.881C298.224 278.099 298.432 278.34 298.504 278.824C298.403 279.308 298.181 279.549 297.838 279.549C297.351 279.464 297.107 279.222 297.107 278.824C297.179 278.34 297.387 278.099 297.73 278.099ZM297.473 278.781V278.824C297.473 279.009 297.558 279.151 297.73 279.251H297.881C298.053 279.151 298.138 279.009 298.138 278.824V278.781C298.11 278.511 297.988 278.376 297.773 278.376C297.573 278.447 297.473 278.582 297.473 278.781ZM277.858 278.568C277.787 278.796 277.751 278.917 277.751 278.931H278.009L277.901 278.568H277.858ZM291.285 283.624H298.203V284.136H291.285V283.624ZM317.121 253.565H323.415C323.501 253.565 324.174 255.201 325.435 258.472C325.549 258.586 326.867 261.807 329.388 268.136H330.999V253.565H336.52V270.91H337.143V277.672H334.909V278.974H337.143V283.006H328.872V277.886H327.411C325.435 273.093 324.103 269.786 323.415 267.965V262.803H322.642V278.504H321.396V283.923H316.24V272.254H317.185V272.211C317.142 262.141 317.121 255.926 317.121 253.565ZM336.778 263.058H337.358C337.63 263.058 337.766 263.201 337.766 263.485C337.766 263.585 337.716 263.634 337.616 263.634C337.716 263.762 337.766 263.919 337.766 264.104V264.21H337.508C337.479 263.926 337.429 263.784 337.358 263.784H337.1V264.21H336.778V263.058ZM337.1 263.314V263.592H337.358C337.429 263.592 337.465 263.556 337.465 263.485V263.314L337.1 263.314ZM336.778 264.616H337.659V264.872H337.358V265.747H337.035V264.872H336.778C336.706 264.872 336.67 264.836 336.67 264.765V264.723C336.685 264.651 336.72 264.616 336.778 264.616ZM336.67 266.173H336.885C336.971 266.173 337.057 266.393 337.143 266.834H337.25L337.401 266.173H337.723L337.358 267.304H337.1C337.014 267.304 336.871 266.927 336.67 266.173ZM336.735 267.709L337.036 267.709C337.05 267.837 337.121 267.944 337.25 268.029C337.365 267.816 337.451 267.709 337.508 267.709H337.723V267.773C337.508 268.086 337.401 268.271 337.401 268.328C337.458 268.342 337.58 268.513 337.766 268.84H337.401C337.401 268.74 337.336 268.641 337.207 268.541C337.079 268.74 336.985 268.84 336.928 268.84H336.67C336.914 268.484 337.036 268.299 337.036 268.285C336.835 267.958 336.735 267.766 336.735 267.709ZM326.38 268.136V269.267H329.817C329.545 268.513 329.373 268.136 329.302 268.136H326.38ZM331.063 268.136V269.267H329.86C330.591 271.087 331.028 272.275 331.171 272.829H331.214V272.68C331.113 270.817 331.063 269.679 331.063 269.267L333.555 269.267V268.136L331.063 268.136ZM336.778 269.267H337.293C337.651 269.309 337.83 269.48 337.83 269.779V269.821C337.83 270.205 337.673 270.397 337.358 270.397H336.778V269.267ZM337.1 269.522V270.184C337.372 270.184 337.508 270.084 337.508 269.885V269.821C337.508 269.65 337.458 269.551 337.358 269.522L337.1 269.522ZM327.733 278.205L328.507 278.205V278.461H327.948V278.653H328.399C328.471 278.668 328.507 278.703 328.507 278.76V278.824C328.507 278.895 328.471 278.931 328.399 278.931H327.948V279.123H328.464C328.535 279.137 328.571 279.173 328.571 279.229V279.272C328.571 279.343 328.535 279.379 328.464 279.379H327.733C327.662 279.379 327.626 279.343 327.626 279.272V278.291C327.64 278.234 327.676 278.205 327.733 278.205ZM321.482 278.76H321.804C321.947 279.187 322.019 279.429 322.019 279.485H322.062C322.148 279.002 322.234 278.76 322.32 278.76H322.535V278.824C322.32 279.549 322.184 279.912 322.126 279.912H321.847C321.847 279.813 321.725 279.429 321.482 278.76ZM328.141 279.741L328.249 279.741C328.32 279.756 328.356 279.791 328.356 279.848V280.531C328.356 280.716 328.27 280.851 328.099 280.936H327.948C327.705 280.936 327.583 280.815 327.583 280.573V280.467H327.841C327.841 280.609 327.876 280.68 327.948 280.68H328.034V279.848C328.048 279.777 328.084 279.741 328.141 279.741ZM327.733 281.299H327.841C327.912 281.299 327.948 281.434 327.948 281.704L328.399 281.299H328.679V281.341L328.249 281.811C328.292 281.811 328.45 282.017 328.722 282.429L328.614 282.493H328.464C328.421 282.493 328.278 282.337 328.034 282.024C327.977 282.024 327.927 282.181 327.884 282.493H327.733C327.662 282.493 327.626 282.458 327.626 282.387V281.405C327.64 281.334 327.676 281.299 327.733 281.299ZM328.872 283.56H338.862V284.136H328.872V283.56ZM367.318 253.65C370.727 253.65 373.011 254.738 374.171 256.914C374.973 258.564 375.374 260.178 375.374 261.757H375.331C372.997 261.956 371.4 262.056 370.541 262.056C370.541 260.932 370.19 259.986 369.488 259.218C368.829 258.849 368.22 258.664 367.662 258.664H366.802C365.342 258.664 364.454 259.226 364.139 260.349C364.067 260.676 364.031 260.932 364.031 261.117V261.565C364.031 263.158 364.876 264.31 366.566 265.021C366.709 265.149 367.884 265.683 370.089 266.621C371.264 267.162 372.352 267.83 373.355 268.627V268.669H367.963V269.267H375.073V270.12H375.976V279.379H374.214V284.136H360.551V279.379H357.329V276.179H359.155V275.069H357.329V274.323H363.58V279.379H369.982V271.763H365.192V269.267H359.241V268.669H362.12V268.627C359.599 266.963 358.338 264.609 358.338 261.565V261.16C358.338 258.614 359.126 256.68 360.702 255.357C362.134 254.219 364.339 253.65 367.318 253.65ZM375.073 268.669H377.243V269.266L375.073 269.267L375.073 268.669ZM355.266 275.069L357.329 275.069V276.179L355.266 276.179V275.069ZM369.037 275.069L369.681 275.069C369.753 275.083 369.789 275.119 369.789 275.176V275.325H369.23V275.517H369.724V275.667C369.724 275.738 369.695 275.773 369.638 275.773H369.23V275.987H369.788V276.136C369.788 276.193 369.753 276.221 369.681 276.221H369.037C368.965 276.221 368.929 276.193 368.929 276.136V275.176C368.944 275.105 368.979 275.069 369.037 275.069ZM368.779 276.584L368.972 276.584C369.001 276.584 369.122 276.712 369.337 276.968C369.438 276.712 369.516 276.584 369.574 276.584H369.724C369.796 276.584 369.831 276.613 369.831 276.669C369.531 277.011 369.38 277.366 369.38 277.736H369.23C369.158 277.736 369.108 277.537 369.08 277.139C368.879 276.869 368.779 276.684 368.779 276.584ZM368.628 278.077L368.822 278.077C368.908 278.077 368.994 278.298 369.079 278.739H369.187C369.273 278.298 369.352 278.077 369.423 278.077H369.638C369.695 278.092 369.724 278.127 369.724 278.184V279.123C369.724 279.194 369.695 279.229 369.638 279.229H369.488V278.589H369.423L369.23 279.229H369.079C369.008 279.229 368.922 279.016 368.822 278.589H368.779V279.229H368.628C368.557 279.229 368.521 279.194 368.521 279.123V278.184C368.535 278.113 368.571 278.077 368.628 278.077ZM374.514 279.635H375.03C375.302 279.635 375.438 279.77 375.438 280.04C375.367 280.04 375.331 280.069 375.331 280.125C375.431 280.253 375.481 280.374 375.481 280.488C375.395 280.687 375.209 280.787 374.923 280.787H374.622C374.55 280.787 374.515 280.751 374.515 280.68L374.514 279.635ZM374.815 279.891V280.083H375.03C375.088 280.083 375.116 280.047 375.116 279.976V279.891H374.815ZM374.815 280.275V280.531H375.073C375.145 280.531 375.181 280.495 375.181 280.424V280.381C375.181 280.31 375.145 280.275 375.073 280.275L374.815 280.275ZM374.514 281.128H374.729C374.801 281.128 374.951 281.363 375.18 281.832H375.223V281.128H375.481V282.173C375.481 282.244 375.445 282.28 375.374 282.28H375.266C375.238 282.28 375.073 282.067 374.772 281.64V282.173C374.772 282.244 374.737 282.28 374.665 282.28H374.622C374.55 282.28 374.515 282.244 374.515 282.173L374.514 281.128Z" fill="white"/>
</svg>
